# 3ds Max Wavefront OBJ Exporter v0.97b - (c)2007 guruware
# File Created: 05.12.2012 10:15:31

#
# object Sphere02
#

v  -0.6132 -7.3752 9.7201
v  0.7607 -6.2960 9.0907
v  0.0195 -5.7918 9.0354
v  -0.8434 -5.7011 9.0544
v  -1.6499 -6.0603 9.0787
v  -2.1908 -6.7811 9.0747
v  -2.2553 -7.6682 9.0480
v  -1.8857 -8.4604 9.0610
v  -1.1842 -8.9670 9.1773
v  -0.3472 -9.0632 9.4118
v  0.4207 -8.6967 9.5676
v  0.9673 -7.9770 9.4949
v  1.1242 -7.0955 9.2745
v  0.2569 -4.6921 7.7060
v  1.8894 -5.3786 7.7866
v  -1.2466 -4.5344 7.8095
v  -2.7662 -5.2176 7.8408
v  -3.8543 -6.5375 7.8383
v  -3.5163 -8.0715 7.8224
v  -2.6968 -9.3628 7.8181
v  -1.4100 -10.1319 7.8334
v  0.1183 -10.2448 7.8707
v  1.3950 -9.5210 7.9042
v  2.3310 -8.2214 7.8790
v  2.9875 -6.6881 7.8702
v  -2.5158 -4.5355 6.1456
v  -0.8052 -4.0243 6.0749
v  -3.9457 -5.8763 6.1322
v  -4.1281 -7.6088 6.1255
v  -3.3799 -9.3565 6.1322
v  -2.0781 -10.9898 6.1520
v  -0.3742 -11.0114 6.1408
v  1.4207 -10.2384 6.1114
v  2.4963 -8.9133 6.1180
v  3.2076 -7.1235 6.1271
v  2.6407 -5.4635 6.1130
v  0.9414 -4.4070 6.0343
v  -3.4005 -6.6866 4.3957
v  -2.6947 -5.3505 4.3630
v  -3.3916 -8.2010 4.4186
v  -2.6376 -9.8678 4.4375
v  -1.2739 -11.0024 4.4332
v  0.2462 -10.2564 4.4249
v  1.6799 -9.4604 4.4168
v  2.2493 -8.0363 4.4259
v  2.1819 -6.5332 4.4311
v  1.4312 -5.2314 4.4347
v  0.1164 -4.4914 4.4234
v  -1.4144 -4.5440 4.3851
v  -2.2508 -7.0863 2.9185
v  -1.8875 -6.2966 2.7891
v  -2.1655 -7.9562 3.1042
v  -1.6525 -8.7121 3.1841
v  -0.8509 -9.1020 3.1870
v  0.0268 -8.9810 3.1790
v  0.7464 -8.4592 3.1749
v  1.1013 -7.6550 3.1901
v  1.0123 -6.7782 3.2036
v  0.5110 -6.0594 3.1695
v  -0.2897 -5.6917 3.0281
v  -1.1728 -5.7790 2.8423
v  -0.5705 -7.3779 2.5698
# 62 vertices

vn -0.0936 0.0871 0.9918
vn 0.3353 0.4600 0.8222
vn 0.2066 0.5757 0.7911
vn -0.0622 0.5763 0.8149
vn -0.3174 0.4446 0.8376
vn -0.4927 0.1591 0.8555
vn -0.5564 -0.1177 0.8225
vn -0.4882 -0.3490 0.7999
vn -0.3451 -0.5175 0.7830
vn -0.0709 -0.5836 0.8090
vn 0.2828 -0.4333 0.8558
vn 0.4754 -0.1186 0.8717
vn 0.4167 0.2551 0.8725
vn 0.2849 0.9549 0.0838
vn 0.6417 0.7568 0.1241
vn -0.1319 0.9890 0.0668
vn -0.6020 0.7958 0.0657
vn -0.9493 0.3084 0.0603
vn -0.9194 -0.3209 0.2276
vn -0.7255 -0.6742 0.1384
vn -0.3421 -0.9371 0.0696
vn 0.1621 -0.9855 0.0509
vn 0.6363 -0.7667 0.0857
vn 0.8827 -0.4699 0.0086
vn 0.9939 0.1100 -0.0027
vn -0.5183 0.8533 0.0574
vn -0.0501 0.9983 0.0293
vn -0.8930 0.4474 0.0480
vn -0.9917 -0.1089 0.0690
vn -0.8542 -0.5199 0.0095
vn -0.4233 -0.9045 0.0521
vn 0.1716 -0.9772 0.1246
vn 0.5908 -0.8045 0.0620
vn 0.8663 -0.4992 -0.0186
vn 1.0000 -0.0024 -0.0044
vn 0.7995 0.5977 0.0599
vn 0.3960 0.9180 0.0219
vn -0.9699 0.1865 -0.1564
vn -0.7551 0.6462 -0.1111
vn -0.9239 -0.2499 -0.2898
vn -0.7168 -0.6472 -0.2595
vn -0.0529 -0.9976 -0.0457
vn 0.4099 -0.8794 -0.2422
vn 0.7893 -0.5989 -0.1353
vn 0.9771 -0.1377 -0.1622
vn 0.9325 0.3181 -0.1711
vn 0.6541 0.7288 -0.2024
vn 0.1840 0.9761 -0.1156
vn -0.3326 0.9400 -0.0760
vn -0.5813 -0.0343 -0.8129
vn -0.4381 0.3046 -0.8458
vn -0.5188 -0.2871 -0.8052
vn -0.3476 -0.4106 -0.8430
vn -0.0964 -0.4633 -0.8809
vn 0.2320 -0.4853 -0.8430
vn 0.4261 -0.3434 -0.8370
vn 0.5667 -0.0649 -0.8214
vn 0.5466 0.1929 -0.8149
vn 0.4253 0.3863 -0.8185
vn 0.2221 0.5169 -0.8267
vn -0.1072 0.5242 -0.8448
vn 0.0685 -0.0665 -0.9954
# 62 vertex normals

vt 0.0000 1.0000 0.0000
vt 0.0000 0.8333 0.0000
vt 0.0833 0.8333 0.0000
vt 0.0833 1.0000 0.0000
vt 0.1667 0.8333 0.0000
vt 0.1667 1.0000 0.0000
vt 0.2500 0.8333 0.0000
vt 0.2500 1.0000 0.0000
vt 0.3333 0.8333 0.0000
vt 0.3333 1.0000 0.0000
vt 0.4167 0.8333 0.0000
vt 0.4167 1.0000 0.0000
vt 0.5000 0.8333 0.0000
vt 0.5000 1.0000 0.0000
vt 0.5833 0.8333 0.0000
vt 0.5833 1.0000 0.0000
vt 0.6667 0.8333 0.0000
vt 0.6667 1.0000 0.0000
vt 0.7500 0.8333 0.0000
vt 0.7500 1.0000 0.0000
vt 0.8333 0.8333 0.0000
vt 0.8333 1.0000 0.0000
vt 0.9167 0.8333 0.0000
vt 0.9167 1.0000 0.0000
vt 1.0000 0.8333 0.0000
vt 0.0833 0.6667 0.0000
vt 0.0000 0.6667 0.0000
vt 0.1667 0.6667 0.0000
vt 0.2500 0.6667 0.0000
vt 0.3333 0.6667 0.0000
vt 0.4167 0.6667 0.0000
vt 0.5000 0.6667 0.0000
vt 0.5833 0.6667 0.0000
vt 0.6667 0.6667 0.0000
vt 0.7500 0.6667 0.0000
vt 0.8333 0.6667 0.0000
vt 0.9167 0.6667 0.0000
vt 1.0000 0.6667 0.0000
vt 0.0833 0.5000 0.0000
vt 0.0000 0.5000 0.0000
vt 0.1667 0.5000 0.0000
vt 0.2500 0.5000 0.0000
vt 0.3333 0.5000 0.0000
vt 0.4167 0.5000 0.0000
vt 0.5000 0.5000 0.0000
vt 0.5833 0.5000 0.0000
vt 0.6667 0.5000 0.0000
vt 0.7500 0.5000 0.0000
vt 0.8333 0.5000 0.0000
vt 0.9167 0.5000 0.0000
vt 1.0000 0.5000 0.0000
vt 0.0833 0.3333 0.0000
vt 0.0000 0.3333 0.0000
vt 0.1667 0.3333 0.0000
vt 0.2500 0.3333 0.0000
vt 0.3333 0.3333 0.0000
vt 0.4167 0.3333 0.0000
vt 0.5000 0.3333 0.0000
vt 0.5833 0.3333 0.0000
vt 0.6667 0.3333 0.0000
vt 0.7500 0.3333 0.0000
vt 0.8333 0.3333 0.0000
vt 0.9167 0.3333 0.0000
vt 1.0000 0.3333 0.0000
vt 0.0833 0.1667 0.0000
vt 0.0000 0.1667 0.0000
vt 0.1667 0.1667 0.0000
vt 0.2500 0.1667 0.0000
vt 0.3333 0.1667 0.0000
vt 0.4167 0.1667 0.0000
vt 0.5000 0.1667 0.0000
vt 0.5833 0.1667 0.0000
vt 0.6667 0.1667 0.0000
vt 0.7500 0.1667 0.0000
vt 0.8333 0.1667 0.0000
vt 0.9167 0.1667 0.0000
vt 1.0000 0.1667 0.0000
vt 0.0000 0.0000 0.0000
vt 0.0833 0.0000 0.0000
vt 0.1667 0.0000 0.0000
vt 0.2500 0.0000 0.0000
vt 0.3333 0.0000 0.0000
vt 0.4167 0.0000 0.0000
vt 0.5000 0.0000 0.0000
vt 0.5833 0.0000 0.0000
vt 0.6667 0.0000 0.0000
vt 0.7500 0.0000 0.0000
vt 0.8333 0.0000 0.0000
vt 0.9167 0.0000 0.0000
# 89 texture coords

g Sphere02
f 1/1/1 2/2/2 3/3/3 
f 1/4/1 3/3/3 4/5/4 
f 1/6/1 4/5/4 5/7/5 
f 1/8/1 5/7/5 6/9/6 
f 1/10/1 6/9/6 7/11/7 
f 1/12/1 7/11/7 8/13/8 
f 1/14/1 8/13/8 9/15/9 
f 1/16/1 9/15/9 10/17/10 
f 1/18/1 10/17/10 11/19/11 
f 1/20/1 11/19/11 12/21/12 
f 1/22/1 12/21/12 13/23/13 
f 1/24/1 13/23/13 2/25/2 
f 14/26/14 3/3/3 2/2/2 
f 2/2/2 15/27/15 14/26/14 
f 16/28/16 4/5/4 3/3/3 
f 3/3/3 14/26/14 16/28/16 
f 17/29/17 5/7/5 4/5/4 
f 4/5/4 16/28/16 17/29/17 
f 18/30/18 6/9/6 5/7/5 
f 5/7/5 17/29/17 18/30/18 
f 19/31/19 7/11/7 6/9/6 
f 6/9/6 18/30/18 19/31/19 
f 20/32/20 8/13/8 7/11/7 
f 7/11/7 19/31/19 20/32/20 
f 21/33/21 9/15/9 8/13/8 
f 8/13/8 20/32/20 21/33/21 
f 22/34/22 10/17/10 9/15/9 
f 9/15/9 21/33/21 22/34/22 
f 23/35/23 11/19/11 10/17/10 
f 10/17/10 22/34/22 23/35/23 
f 24/36/24 12/21/12 11/19/11 
f 11/19/11 23/35/23 24/36/24 
f 25/37/25 13/23/13 12/21/12 
f 12/21/12 24/36/24 25/37/25 
f 15/38/15 2/25/2 13/23/13 
f 13/23/13 25/37/25 15/38/15 
f 26/39/26 14/26/14 15/27/15 
f 15/27/15 27/40/27 26/39/26 
f 28/41/28 16/28/16 14/26/14 
f 14/26/14 26/39/26 28/41/28 
f 29/42/29 17/29/17 16/28/16 
f 16/28/16 28/41/28 29/42/29 
f 30/43/30 18/30/18 17/29/17 
f 17/29/17 29/42/29 30/43/30 
f 31/44/31 19/31/19 18/30/18 
f 18/30/18 30/43/30 31/44/31 
f 32/45/32 20/32/20 19/31/19 
f 19/31/19 31/44/31 32/45/32 
f 33/46/33 21/33/21 20/32/20 
f 20/32/20 32/45/32 33/46/33 
f 34/47/34 22/34/22 21/33/21 
f 21/33/21 33/46/33 34/47/34 
f 35/48/35 23/35/23 22/34/22 
f 22/34/22 34/47/34 35/48/35 
f 36/49/36 24/36/24 23/35/23 
f 23/35/23 35/48/35 36/49/36 
f 37/50/37 25/37/25 24/36/24 
f 24/36/24 36/49/36 37/50/37 
f 27/51/27 15/38/15 25/37/25 
f 25/37/25 37/50/37 27/51/27 
f 38/52/38 26/39/26 27/40/27 
f 27/40/27 39/53/39 38/52/38 
f 40/54/40 28/41/28 26/39/26 
f 26/39/26 38/52/38 40/54/40 
f 41/55/41 29/42/29 28/41/28 
f 28/41/28 40/54/40 41/55/41 
f 42/56/42 30/43/30 29/42/29 
f 29/42/29 41/55/41 42/56/42 
f 43/57/43 31/44/31 30/43/30 
f 30/43/30 42/56/42 43/57/43 
f 44/58/44 32/45/32 31/44/31 
f 31/44/31 43/57/43 44/58/44 
f 45/59/45 33/46/33 32/45/32 
f 32/45/32 44/58/44 45/59/45 
f 46/60/46 34/47/34 33/46/33 
f 33/46/33 45/59/45 46/60/46 
f 47/61/47 35/48/35 34/47/34 
f 34/47/34 46/60/46 47/61/47 
f 48/62/48 36/49/36 35/48/35 
f 35/48/35 47/61/47 48/62/48 
f 49/63/49 37/50/37 36/49/36 
f 36/49/36 48/62/48 49/63/49 
f 39/64/39 27/51/27 37/50/37 
f 37/50/37 49/63/49 39/64/39 
f 50/65/50 38/52/38 39/53/39 
f 39/53/39 51/66/51 50/65/50 
f 52/67/52 40/54/40 38/52/38 
f 38/52/38 50/65/50 52/67/52 
f 53/68/53 41/55/41 40/54/40 
f 40/54/40 52/67/52 53/68/53 
f 54/69/54 42/56/42 41/55/41 
f 41/55/41 53/68/53 54/69/54 
f 55/70/55 43/57/43 42/56/42 
f 42/56/42 54/69/54 55/70/55 
f 56/71/56 44/58/44 43/57/43 
f 43/57/43 55/70/55 56/71/56 
f 57/72/57 45/59/45 44/58/44 
f 44/58/44 56/71/56 57/72/57 
f 58/73/58 46/60/46 45/59/45 
f 45/59/45 57/72/57 58/73/58 
f 59/74/59 47/61/47 46/60/46 
f 46/60/46 58/73/58 59/74/59 
f 60/75/60 48/62/48 47/61/47 
f 47/61/47 59/74/59 60/75/60 
f 61/76/61 49/63/49 48/62/48 
f 48/62/48 60/75/60 61/76/61 
f 51/77/51 39/64/39 49/63/49 
f 49/63/49 61/76/61 51/77/51 
f 62/78/62 50/65/50 51/66/51 
f 62/79/62 52/67/52 50/65/50 
f 62/80/62 53/68/53 52/67/52 
f 62/81/62 54/69/54 53/68/53 
f 62/82/62 55/70/55 54/69/54 
f 62/83/62 56/71/56 55/70/55 
f 62/84/62 57/72/57 56/71/56 
f 62/85/62 58/73/58 57/72/57 
f 62/86/62 59/74/59 58/73/58 
f 62/87/62 60/75/60 59/74/59 
f 62/88/62 61/76/61 60/75/60 
f 62/89/62 51/77/51 61/76/61 
# 120 faces

